# xmcd
#
# Track frame offsets:
#	150
#	16059
#	41355
#	59098
#	78322
#	97597
#	112879
#	127438
#	150636
#	168195
#	185262
#	201116
#	219938
#	236631
#	252489
#
# Disc length: 3675 seconds
#
# Revision: 0
# Processed by: cddbd v1.5.2PL0 Copyright (c) Steve Scherf et al.
# Submitted via: audiograbber 1.83.01
#
DISCID=be0e590f
DTITLE=Sound Choice - Country Hits - Vol. 171 SC8880
DYEAR=1900
DGENRE=Karaoke
TTITLE0=Big and Rich - Save A Horse (Ride A Cowboy)
TTITLE1=Toby Keith - Time For Me To Ride
TTITLE2=Reba McEntire - Somebody
TTITLE3=Jimmy Wayne - You Are
TTITLE4=Kenny Chesney - I Go Back
TTITLE5=Brad Cotter - I Meant To
TTITLE6=Buffett, Black, Chesney, Jackson, Keith, and Strait - Hey Good Lookin'
TTITLE7=Tim McGraw - Live Like You Were Dying
TTITLE8=Sara Evans - Suds In The Bucket
TTITLE9=Toby Keith - If I was Jesus
TTITLE10=Josh Turner - What It Ain't
TTITLE11=Clay Walker - I Can't Sleep
TTITLE12=Terri Clark - Girls Lie Too
TTITLE13=Gretchen Wilson - Homewrecker
TTITLE14=Gretchen Wilson - Here For The Party
EXTD=
EXTT0=
EXTT1=
EXTT2=
EXTT3=
EXTT4=
EXTT5=
EXTT6=
EXTT7=
EXTT8=
EXTT9=
EXTT10=
EXTT11=
EXTT12=
EXTT13=
EXTT14=
PLAYORDER=
